<svg width="683" height="612" viewBox="0 0 683 612" fill="none" xmlns="http://www.w3.org/2000/svg">
<ellipse cx="257" cy="423.5" rx="121" ry="120.5" fill="white"/>
<path d="M338 423.5C338 467.803 301.891 504 257 504C212.109 504 176 467.803 176 423.5C176 379.197 212.109 343 257 343C301.891 343 338 379.197 338 423.5Z" stroke="#82DBD8" stroke-opacity="0.36" stroke-width="80"/>
<g filter="url(#filter0_d_58_16)">
<rect x="321" y="100" width="217" height="378" rx="14" fill="white"/>
<rect x="321" y="100" width="217" height="378" rx="14" fill="white"/>
<rect x="321" y="100" width="217" height="378" rx="14" fill="white"/>
</g>
<rect x="342" y="143" width="166" height="50" rx="8" fill="#82DBD8"/>
<rect x="342" y="224" width="88" height="116" rx="8" fill="#82DBD8" fill-opacity="0.36"/>
<rect x="441" y="224" width="74" height="50" rx="8" fill="#82DBD8" fill-opacity="0.36"/>
<path d="M441 297C441 292.582 444.582 289 449 289H507C511.418 289 515 292.582 515 297V331C515 335.418 511.418 339 507 339H449C444.582 339 441 335.418 441 331V297Z" fill="#82DBD8" fill-opacity="0.36"/>
<rect x="425" y="371" width="258" height="138" rx="8" fill="#82DBD8"/>
<g filter="url(#filter1_d_58_16)">
<rect x="117" y="118" width="169" height="228" rx="28" fill="white"/>
<rect x="117" y="118" width="169" height="228" rx="28" fill="white"/>
<rect x="117" y="118" width="169" height="228" rx="28" fill="white"/>
</g>
<ellipse cx="201.5" cy="191" rx="40.5" ry="41" fill="#82DBD8"/>
<rect x="155" y="246" width="87" height="16" rx="8" fill="#82DBD8" fill-opacity="0.36"/>
<defs>
<filter id="filter0_d_58_16" x="204" y="0" width="451" height="612" filterUnits="userSpaceOnUse" color-interpolation-filters="sRGB">
<feFlood flood-opacity="0" result="BackgroundImageFix"/>
<feColorMatrix in="SourceAlpha" type="matrix" values="0 0 0 0 0 0 0 0 0 0 0 0 0 0 0 0 0 0 127 0" result="hardAlpha"/>
<feMorphology radius="16" operator="dilate" in="SourceAlpha" result="effect1_dropShadow_58_16"/>
<feOffset dy="17"/>
<feGaussianBlur stdDeviation="50.5"/>
<feComposite in2="hardAlpha" operator="out"/>
<feColorMatrix type="matrix" values="0 0 0 0 0.904167 0 0 0 0 0.91375 0 0 0 0 1 0 0 0 1 0"/>
<feBlend mode="normal" in2="BackgroundImageFix" result="effect1_dropShadow_58_16"/>
<feBlend mode="normal" in="SourceGraphic" in2="effect1_dropShadow_58_16" result="shape"/>
</filter>
<filter id="filter1_d_58_16" x="0" y="18" width="403" height="462" filterUnits="userSpaceOnUse" color-interpolation-filters="sRGB">
<feFlood flood-opacity="0" result="BackgroundImageFix"/>
<feColorMatrix in="SourceAlpha" type="matrix" values="0 0 0 0 0 0 0 0 0 0 0 0 0 0 0 0 0 0 127 0" result="hardAlpha"/>
<feMorphology radius="16" operator="dilate" in="SourceAlpha" result="effect1_dropShadow_58_16"/>
<feOffset dy="17"/>
<feGaussianBlur stdDeviation="50.5"/>
<feComposite in2="hardAlpha" operator="out"/>
<feColorMatrix type="matrix" values="0 0 0 0 0.904167 0 0 0 0 0.91375 0 0 0 0 1 0 0 0 1 0"/>
<feBlend mode="normal" in2="BackgroundImageFix" result="effect1_dropShadow_58_16"/>
<feBlend mode="normal" in="SourceGraphic" in2="effect1_dropShadow_58_16" result="shape"/>
</filter>
</defs>
</svg>
